<?xml version="1.0" standalone="no"?><svg xmlns="http://www.w3.org/2000/svg" viewBox="0 0 1440 320"><path fill="#ffff" fill-opacity="1" d="M0,160L30,149.3C60,139,120,117,180,133.3C240,149,300,203,360,213.3C420,224,480,192,540,192C600,192,660,224,720,240C780,256,840,256,900,234.7C960,213,1020,171,1080,176C1140,181,1200,235,1260,250.7C1320,267,1380,245,1410,234.7L1440,224L1440,320L1410,320C1380,320,1320,320,1260,320C1200,320,1140,320,1080,320C1020,320,960,320,900,320C840,320,780,320,720,320C660,320,600,320,540,320C480,320,420,320,360,320C300,320,240,320,180,320C120,320,60,320,30,320L0,320Z"></path></svg>