<svg width="262" height="92" viewBox="0 0 262 92" fill="none" xmlns="http://www.w3.org/2000/svg">
<path d="M2 71.5L2.29222 70.5436L1 70.1488V71.5V90V91H2H259.5H260.5V90V4V2.05916L258.92 3.1857C245.157 12.9955 227.835 27.6661 216.519 37.25C211.952 41.1175 208.364 44.1566 206.382 45.7137C199.603 51.0403 192.385 52.5 186 52.5C164.413 52.5 152.511 46.7513 142.197 41.7698C139.012 40.2317 135.979 38.7667 132.859 37.5667L132.844 37.561L132.829 37.5558C121.604 33.6405 113.821 32.9508 108.398 33.5052C104.858 33.8671 101.077 35.4641 97.1089 37.8502C93.1313 40.2417 88.8927 43.4711 84.4297 47.1789C80.4712 50.4676 76.3119 54.1534 71.9831 57.9893C71.4301 58.4793 70.8744 58.9718 70.316 59.4662C65.3964 63.8217 60.2597 68.3342 54.9211 72.6818C49.9368 75.7201 44.4598 77.5439 39.4348 78.3638C34.3746 79.1894 29.8513 78.9849 26.7941 78.0442C23.5431 77.0439 17.4173 75.1687 12.105 73.5437C9.44868 72.7312 6.99549 71.9812 5.20639 71.4343L3.0784 70.7839L2.49598 70.6059L2.34406 70.5595L2.30529 70.5476L2.2955 70.5447L2.29304 70.5439L2.29242 70.5437C2.29229 70.5437 2.29222 70.5436 2 71.5Z" fill="white" stroke="white" stroke-width="2"/>
</svg>
